<?xml version="1.0" encoding="utf-8"?>
<!-- Generator: Adobe Illustrator 19.0.0, SVG Export Plug-In . SVG Version: 6.00 Build 0)  -->
<svg version="1.1" id="Слой_1" xmlns="http://www.w3.org/2000/svg" xmlns:xlink="http://www.w3.org/1999/xlink" x="0px" y="0px"
	 viewBox="0 0 65.6 53" style="enable-background:new 0 0 65.6 53;" xml:space="preserve">
<style type="text/css">
	.st0{fill:none;stroke:#FFFFFF;stroke-linecap:round;stroke-miterlimit:10;}
	.st1{fill:#E49E44;}
	.st2{fill:#FFFFFF;}
	.st3{fill:#D44F6D;}
	.st4{font-family:'Stencil';}
	.st5{font-size:7.0927px;}
	.st6{fill:#D44F6D;stroke:#FFFFFF;stroke-miterlimit:10;}
	.st7{font-size:16.86px;}
</style>
<path class="st0" d="M14.2,46.4c0,0,2-2.4,4.8,0.7"/>
<path class="st0" d="M14.3,46.6c0,0,2.6-1.7,4.4,2.1"/>
<g>
	<path class="st1" d="M19.8,18.7l1.8,0.3c0,0,1.3,1.6,0.1,6.4c-1.2,4.9-2.7,5.7-2.7,5.7l-2-0.3L19.8,18.7z"/>
	<path class="st1" d="M17,30.8c1,0.2,2.5-2.4,3.2-5.8s0.5-6.2-0.5-6.3s-2.5,2.4-3.2,5.8S16,30.7,17,30.8z"/>
	<path class="st2" d="M17.1,30.5c1,0.1,2.3-2.3,3-5.4s0.5-5.8-0.4-6c-1-0.1-2.3,2.3-3,5.4S16.1,30.3,17.1,30.5z"/>
	<text transform="matrix(-0.4804 -0.1096 -0.2982 0.9545 18.7473 26.879)" class="st3 st4 st5">$</text>
	<path class="st1" d="M30.1,14.9l1.8,0.3c0,0,1.3,1.6,0.1,6.4c-1.2,4.9-2.7,5.7-2.7,5.7l-2-0.3L30.1,14.9z"/>
	<path class="st1" d="M27.3,27c1,0.2,2.5-2.4,3.2-5.8s0.5-6.2-0.5-6.3c-1-0.2-2.5,2.4-3.2,5.8S26.3,26.8,27.3,27z"/>
	<path class="st2" d="M27.4,26.6c1,0.1,2.3-2.3,3-5.4s0.5-5.8-0.4-6c-1-0.1-2.3,2.3-3,5.4S26.4,26.5,27.4,26.6z"/>
	<text transform="matrix(-0.4804 -0.1096 -0.2982 0.9545 29.0532 23.0623)" class="st3 st4 st5">$</text>
	<path class="st3" d="M44,37.1c0,2.8-2.1,5-4.8,5h-4c-2.6,0-4.8-2.3-4.8-5l0,0c0-2.8,2.1-5,4.8-5h4C41.9,32.1,44,34.3,44,37.1
		L44,37.1z"/>
	<ellipse class="st2" cx="35.9" cy="37.1" rx="3.6" ry="3.8"/>
	<path class="st6" d="M0.6,26.8c0,0,7.8-8.9,12.9-10.4s17.6-5.4,17.6-5.4s2.5-0.2,6.2-3.7c3.7-3.5,7.5-6.6,7.5-6.6l14.4,24.5
		c0,0-8.9,7.6-14.7,9.2C38.8,36.1,28.8,40,28.8,40s-4.4,0.9-8.4,5.5c-4.7,5.4-5.7,5.7-5.7,5.7L0.6,26.8z"/>
	<ellipse transform="matrix(0.9562 -0.2928 0.2928 0.9562 -6.9146 11.7056)" class="st2" cx="35.6" cy="29" rx="7.5" ry="11"/>
	<text transform="matrix(1.171 -0.3585 0.2928 0.9562 31.6201 35.6427)" class="st1 st4 st7">$</text>
	<path class="st0" d="M8.6,28.1c0,0,3.5-1.7,0.9-4.7"/>
	<path class="st0" d="M51.1,12.5c0,0,1.4,2.8,4.2,1.7"/>
	<path class="st0" d="M58.3,37.6c0,0-0.3-4,3-4.3"/>
	<path class="st0" d="M44.3,22.3c0,0,5.6-0.9,9.6-4.5"/>
	<path class="st0" d="M18.9,43c0,0,5.3-3.6,11-4"/>
	<path class="st0" d="M17.2,41.2c0,0,1.4-1.7,4.6-2.4"/>
	<g>
		<path class="st6" d="M8.1,24c0,0,10-6.4,15.3-6.5c5.3-0.1,18.4-0.3,18.4-0.3s2.4,0.5,7-1.9s9-4.3,9-4.3L65,38.6
			c0,0-10.7,4.9-16.6,4.8s-16.7,1-16.7,1s-4.4-0.4-9.6,2.9c-6,3.9-7,3.9-7,3.9L8.1,24z"/>
		<ellipse transform="matrix(0.9692 -0.2461 0.2461 0.9692 -6.2437 10.1108)" class="st2" cx="37.3" cy="30" rx="7.5" ry="11"/>
		<text transform="matrix(1.187 -0.3014 0.2461 0.9692 32.9775 36.5746)" class="st1 st4 st7">$</text>
		<path class="st0" d="M10.4,27.9c0,0,3.6-1.5,1.1-4.6"/>
		<path class="st0" d="M15.1,46.4c0,0,2.1-2.3,4.8,1"/>
		<path class="st0" d="M53.5,14.3c0,0,1.2,2.9,4.1,1.9"/>
		<path class="st0" d="M59.6,39.8c0,0-0.2-4,3.2-4.2"/>
		<path class="st0" d="M46.2,23.8c0,0,5.6-0.6,9.8-4"/>
		<path class="st0" d="M19.9,43.3c0,0,5.5-3.4,11.2-3.4"/>
		<path class="st0" d="M18.3,41.4c0,0,1.5-1.6,4.7-2.2"/>
	</g>
	<path class="st6" d="M13.1,23.3c0,0,11.2-3.7,16.4-2.5s17.9,4.2,17.9,4.2s2.2,1.1,7.2-0.1c5-1.2,9.8-2,9.8-2l0.2,28.4
		c0,0-11.5,2.1-17.3,0.6c-5.8-1.5-16.4-3.2-16.4-3.2s-4.2-1.4-10,0.5c-6.8,2.3-7.8,2.1-7.8,2.1V23.3z"/>
	<ellipse class="st2" cx="39.9" cy="36.3" rx="7.5" ry="11"/>
	<text transform="matrix(1.2246 0 0 1 34.1353 41.505)" class="st1 st4 st7">$</text>
	<path class="st0" d="M14.3,27.6c0,0,3.8-0.6,2.2-4.2"/>
	<path class="st0" d="M59.5,25c0,0,0.5,3.1,3.5,2.9"/>
	<path class="st0" d="M50.1,32.4c0,0,5.6,0.8,10.5-1.5"/>
	<path class="st0" d="M19.8,44.8c0,0,6.1-1.9,11.7-0.6"/>
	<path class="st0" d="M18.7,42.6c0,0,1.8-1.2,5.1-1"/>
</g>
</svg>
