<?xml version="1.0" encoding="utf-8"?>
<!-- Generator: Adobe Illustrator 19.0.0, SVG Export Plug-In . SVG Version: 6.00 Build 0)  -->
<svg version="1.1" id="Слой_1" xmlns="http://www.w3.org/2000/svg" xmlns:xlink="http://www.w3.org/1999/xlink" x="0px" y="0px"
	 viewBox="0 0 69.9 60.3" style="enable-background:new 0 0 69.9 60.3;" xml:space="preserve">
<style type="text/css">
	.st0{fill:#E49E44;}
	.st1{fill:#D44F6D;}
	.st2{fill:#FFFFFF;}
	.st3{fill:none;stroke:#FFFFFF;stroke-miterlimit:10;}
	.st4{fill:#FFFFFF;stroke:#D44F6D;stroke-miterlimit:10;}
</style>
<rect x="33.1" y="19.2" class="st0" width="25.7" height="34.2"/>
<rect x="33.1" y="18.5" class="st1" width="25.6" height="1.1"/>
<rect x="35.3" y="22.3" class="st2" width="4.3" height="3.3"/>
<rect x="44.1" y="22.4" class="st2" width="4.3" height="3.3"/>
<rect x="52.9" y="22.3" class="st2" width="4.3" height="3.3"/>
<rect x="35.4" y="27.5" class="st2" width="4.3" height="3.3"/>
<rect x="44.1" y="27.6" class="st2" width="4.3" height="3.3"/>
<rect x="53" y="27.6" class="st2" width="4.3" height="3.3"/>
<rect x="35.3" y="32.4" class="st2" width="4.3" height="3.3"/>
<rect x="44.1" y="32.5" class="st2" width="4.3" height="3.3"/>
<rect x="52.9" y="32.4" class="st2" width="4.3" height="3.3"/>
<rect x="35.4" y="37.7" class="st2" width="4.3" height="3.3"/>
<rect x="44.1" y="37.8" class="st2" width="4.3" height="3.3"/>
<rect x="53" y="37.7" class="st2" width="4.3" height="3.3"/>
<rect x="35.3" y="44.3" class="st2" width="9.9" height="3.3"/>
<rect x="13.8" y="1.1" class="st0" width="39.6" height="52.6"/>
<rect x="13.8" y="13.1" class="st1" width="39.6" height="15.1"/>
<rect x="13.8" class="st1" width="39.4" height="1.7"/>
<rect x="17.2" y="5.8" class="st2" width="6.7" height="5.2"/>
<rect x="30.6" y="6" class="st2" width="6.7" height="5.2"/>
<rect x="44.3" y="5.9" class="st2" width="6.7" height="5.2"/>
<rect x="17.3" y="14" class="st2" width="6.7" height="5.2"/>
<rect x="30.7" y="14.1" class="st2" width="6.7" height="5.2"/>
<rect x="44.4" y="14" class="st2" width="6.7" height="5.2"/>
<rect x="17.1" y="21.4" class="st2" width="6.7" height="5.2"/>
<rect x="30.6" y="21.6" class="st2" width="6.7" height="5.2"/>
<rect x="44.2" y="21.5" class="st2" width="6.7" height="5.2"/>
<rect x="17.2" y="29.6" class="st2" width="6.7" height="5.2"/>
<rect x="30.7" y="29.7" class="st2" width="6.7" height="5.2"/>
<rect x="44.3" y="29.6" class="st2" width="6.7" height="5.2"/>
<rect x="36.5" y="37.3" class="st3" width="9.7" height="16.4"/>
<rect x="17.2" y="39.7" class="st2" width="15.3" height="5.2"/>
<rect x="0.5" y="12.8" class="st3" width="68.9" height="15.6"/>
<circle class="st4" cx="54.9" cy="49.1" r="10.7"/>
<path class="st1" d="M48.3,44.5c0.5,0.1,1,0.2,1.5,0.4c0.3,0.1,0.5,0.2,0.7,0.3c0.2,0.1,0.5,0.2,0.7,0.4c0.5,0.3,0.9,0.6,1.4,0.9
	c0.2,0.2,0.4,0.4,0.6,0.5c0.2,0.2,0.4,0.4,0.6,0.6c0.2,0.2,0.4,0.4,0.5,0.7c0.2,0.2,0.3,0.5,0.5,0.7c0.1,0.2,0.3,0.5,0.4,0.8
	c0.1,0.3,0.2,0.5,0.3,0.8c0.1,0.3,0.2,0.5,0.3,0.8c0.1,0.3,0.1,0.6,0.2,0.8c0.1,0.6,0.2,1.1,0.2,1.7l-1.6-0.8l1-0.7l-0.4,0.6
	c0.1-0.5,0.2-1,0.4-1.4c0.1-0.5,0.3-0.9,0.4-1.4c0.3-0.9,0.7-1.8,1.1-2.7c0.4-0.9,0.8-1.7,1.3-2.6c0.2-0.4,0.5-0.8,0.7-1.2
	c0.3-0.4,0.5-0.8,0.8-1.2c0.6-0.8,1.2-1.5,1.9-2.2c0.7-0.7,1.5-1.3,2.3-1.8c0.4-0.2,0.9-0.5,1.3-0.6c0.5-0.2,0.9-0.3,1.4-0.4
	c0.9-0.2,1.9-0.2,2.8,0c-0.5,0.1-0.9,0.1-1.4,0.2c-0.4,0.1-0.9,0.3-1.3,0.4c-0.4,0.2-0.8,0.4-1.2,0.6c-0.4,0.2-0.7,0.5-1.1,0.8
	c-0.3,0.3-0.7,0.6-1,0.9c-0.3,0.3-0.6,0.6-0.9,1c-0.6,0.7-1.1,1.4-1.5,2.2c-0.9,1.5-1.7,3.1-2.5,4.8c-0.4,0.8-0.7,1.7-1,2.5
	c-0.2,0.4-0.3,0.9-0.5,1.3c-0.1,0.4-0.3,0.9-0.4,1.3l-0.1,0.4L57,54.1l-1,0.7l-1.5,1.1L54.4,54c0-0.2,0-0.5,0-0.7
	c0-0.2,0-0.5-0.1-0.7c0-0.2-0.1-0.5-0.1-0.7c0-0.2-0.1-0.5-0.2-0.7c-0.1-0.2-0.1-0.5-0.2-0.7c-0.1-0.2-0.2-0.5-0.3-0.7
	c-0.1-0.2-0.2-0.4-0.3-0.6c-0.1-0.2-0.2-0.4-0.4-0.6c-0.1-0.2-0.3-0.4-0.4-0.6c-0.1-0.2-0.3-0.4-0.5-0.6c-0.3-0.4-0.7-0.7-1.1-1.1
	c-0.2-0.2-0.4-0.3-0.6-0.5c-0.2-0.2-0.4-0.3-0.6-0.4C49.2,45,48.8,44.7,48.3,44.5z"/>
</svg>
