<?xml version="1.0" encoding="utf-8"?>
<!-- Generator: Adobe Illustrator 19.0.0, SVG Export Plug-In . SVG Version: 6.00 Build 0)  -->
<svg version="1.1" id="Слой_1" xmlns="http://www.w3.org/2000/svg" xmlns:xlink="http://www.w3.org/1999/xlink" x="0px" y="0px"
	 viewBox="0 0 89.9 58.7" style="enable-background:new 0 0 89.9 58.7;" xml:space="preserve">
<style type="text/css">
	.st0{fill:#FFFFFF;}
	.st1{fill:#E49E44;}
	.st2{font-family:'ArialMT';}
	.st3{font-size:12.6428px;}
	.st4{font-size:7.3749px;}
	.st5{fill:#D44F6D;}
	.st6{fill:#FFFFFF;stroke:#D44F6D;stroke-miterlimit:10;}
</style>
<path class="st0" d="M36.9,47.2c0,0.3-0.3,0.6-0.6,0.6H21.6c-0.3,0-0.6-0.3-0.6-0.6l0,0c0-0.3,0.3-0.6,0.6-0.6h14.7
	C36.6,46.6,36.9,46.9,36.9,47.2L36.9,47.2z"/>
<path class="st0" d="M36.7,49.8c0,0.3-0.2,0.5-0.5,0.5H22c-0.3,0-0.5-0.2-0.5-0.5l0,0c0-0.3,0.2-0.5,0.5-0.5h14.2
	C36.5,49.3,36.7,49.5,36.7,49.8L36.7,49.8z"/>
<path class="st0" d="M37.1,52.4c0,0.3-0.3,0.6-0.6,0.6H21.8c-0.3,0-0.6-0.3-0.6-0.6l0,0c0-0.3,0.3-0.6,0.6-0.6h14.7
	C36.9,51.8,37.1,52,37.1,52.4L37.1,52.4z"/>
<path class="st0" d="M36.9,54.9c0,0.3-0.2,0.5-0.5,0.5H22.2c-0.3,0-0.5-0.2-0.5-0.5l0,0c0-0.3,0.2-0.5,0.5-0.5h14.2
	C36.7,54.4,36.9,54.6,36.9,54.9L36.9,54.9z"/>
<path class="st0" d="M36,56.6c0,0.2-0.2,0.4-0.4,0.4h-7.3c-0.2,0-0.4-0.2-0.4-0.4l0,0c0-0.2,0.2-0.4,0.4-0.4h7.3
	C35.8,56.2,36,56.4,36,56.6L36,56.6z"/>
<path class="st0" d="M36.1,58.3c0,0.2-0.2,0.4-0.4,0.4h-4.4c-0.2,0-0.4-0.2-0.4-0.4l0,0c0-0.2,0.2-0.4,0.4-0.4h4.4
	C35.9,57.9,36.1,58.1,36.1,58.3L36.1,58.3z"/>
<text transform="matrix(0.9854 0 0 1 22.9306 14.4632)" class="st1 st2 st3">S=650м</text>
<text transform="matrix(0.9854 0 0 1 66.1095 6.3287)" class="st1 st2 st4">2</text>
<polygon class="st5" points="89.7,36.4 0.2,36.4 17.4,17.9 74.3,17.9 "/>
<rect x="0.5" y="36.7" class="st6" width="88.9" height="4.8"/>
<polygon class="st0" points="44.6,21.1 43.9,22.3 43.9,15.8 42.5,15.8 42.5,22.2 41.9,21 41.1,22.1 43.2,25.8 45.4,22.2 "/>
</svg>
