<?xml version="1.0" encoding="utf-8"?>
<!-- Generator: Adobe Illustrator 19.0.0, SVG Export Plug-In . SVG Version: 6.00 Build 0)  -->
<svg version="1.1" id="Слой_1" xmlns="http://www.w3.org/2000/svg" xmlns:xlink="http://www.w3.org/1999/xlink" x="0px" y="0px"
	 viewBox="0 0 45.6 45.2" style="enable-background:new 0 0 45.6 45.2;" xml:space="preserve">
<style type="text/css">
	.st0{fill:#FFFFFF;stroke:#D44F6D;stroke-miterlimit:10;}
	.st1{fill:#D44F6D;stroke:#FFFFFF;stroke-miterlimit:10;}
	.st2{fill:#E49E44;}
</style>
<g>
	<path class="st0" d="M8,38.8c0,0,0.4-13.1,9.6-15.8l0.5-0.2C8.9,20.1,8.6,6.2,8.6,6.2L31,6.2c0,0-0.4,13.9-10.7,16.6l0.6,0.2
		c10.2,2.7,10.7,15.8,10.7,15.8"/>
	<path class="st1" d="M38.7,2.6c0,1.2-0.9,2.1-2.1,2.1H3.2c-1.1,0-2.1-1-2.1-2.1l0,0c0-1.2,0.9-2.1,2.1-2.1h33.4
		C37.7,0.5,38.7,1.5,38.7,2.6L38.7,2.6z"/>
	<path class="st1" d="M34.4,5.5c0,0.6-0.5,1.1-1.2,1.1H6.8c-0.7,0-1.2-0.5-1.2-1.1l0,0c0-0.6,0.5-1.1,1.2-1.1h26.4
		C33.9,4.4,34.4,4.9,34.4,5.5L34.4,5.5z"/>
	<path class="st2" d="M19.1,22.3c0,0-5.4-2.5-5.4-4.9s12.8-0.8,11.3,1.2C23.6,20.6,19.1,22.3,19.1,22.3z"/>
	<ellipse class="st2" cx="19.8" cy="24.2" rx="0.5" ry="0.6"/>
	<ellipse class="st2" cx="23.1" cy="29.2" rx="0.5" ry="0.6"/>
	<ellipse class="st2" cx="21.1" cy="31" rx="0.5" ry="0.6"/>
	<ellipse class="st2" cx="21.7" cy="25.8" rx="0.5" ry="0.6"/>
	<ellipse class="st2" cx="23.3" cy="34.1" rx="0.5" ry="0.6"/>
	<path class="st2" d="M9,38.4l21.6,0.1c0,0-3.2-3.7-9.7-3.1S9.5,34.3,9,38.4z"/>
	<path class="st1" d="M38,42.7c0-1.1-0.9-2.1-2.1-2.1H2.6c-1.1,0-2.1,0.9-2.1,2.1l0,0c0,1.1,0.9,2.1,2.1,2.1H36
		C37.1,44.7,38,43.8,38,42.7L38,42.7z"/>
	<path class="st1" d="M33.8,39.9c0-0.6-0.5-1.1-1.2-1.1H6.2c-0.7,0-1.2,0.5-1.2,1.1l0,0c0,0.6,0.5,1.1,1.2,1.1h26.4
		C33.3,40.9,33.8,40.4,33.8,39.9L33.8,39.9z"/>
</g>
</svg>
