<?xml version="1.0" encoding="utf-8"?>
<!-- Generator: Adobe Illustrator 19.0.0, SVG Export Plug-In . SVG Version: 6.00 Build 0)  -->
<svg version="1.1" id="Слой_1" xmlns="http://www.w3.org/2000/svg" xmlns:xlink="http://www.w3.org/1999/xlink" x="0px" y="0px"
	 viewBox="0 0 56.5 53.9" style="enable-background:new 0 0 56.5 53.9;" xml:space="preserve">
<style type="text/css">
	.st0{fill:#FFFFFF;stroke:#D44F6D;stroke-miterlimit:10;}
	.st1{fill:#E49E44;}
	.st2{fill:#E49E44;stroke:#FFFFFF;stroke-miterlimit:10;}
	.st3{fill:#FFFFFF;stroke:#E49E44;stroke-miterlimit:10;}
	.st4{font-family:'TimesNewRomanPSMT';}
	.st5{font-size:29.354px;}
	.st6{fill:#D44F6D;}
</style>
<path class="st0" d="M48.5,46.9c0,1.4-1.1,2.5-2.5,2.5H3c-1.4,0-2.5-1.1-2.5-2.5V8.3c0-1.4,1.1-2.5,2.5-2.5h43
	c1.4,0,2.5,1.1,2.5,2.5V46.9z"/>
<path class="st1" d="M48.7,14.2l-0.1-5.7c0-1.5-1.1-2.8-2.5-2.8H2.8c-1.4,0-2.5,1.2-2.5,2.8v5.8L48.7,14.2z"/>
<path class="st2" d="M9.1,8.8c0,1-0.8,1.8-1.7,1.8l0,0c-1,0-1.7-0.8-1.7-1.8V2.6c0-1,0.8-1.8,1.7-1.8l0,0c1,0,1.7,0.8,1.7,1.8V8.8z"
	/>
<path class="st3" d="M8.4,8.1c0,0.3-0.3,0.6-0.6,0.6l0,0c-0.3,0-0.6-0.3-0.6-0.6V2.8c0-0.3,0.3-0.6,0.6-0.6l0,0
	c0.3,0,0.6,0.3,0.6,0.6V8.1z"/>
<path class="st2" d="M19.2,8.9c0,1-0.8,1.8-1.7,1.8l0,0c-1,0-1.7-0.8-1.7-1.8V2.7c0-1,0.8-1.8,1.7-1.8l0,0c1,0,1.7,0.8,1.7,1.8V8.9z
	"/>
<path class="st3" d="M18.5,8.3c0,0.3-0.3,0.6-0.6,0.6l0,0c-0.3,0-0.6-0.3-0.6-0.6V2.9c0-0.3,0.3-0.6,0.6-0.6l0,0
	c0.3,0,0.6,0.3,0.6,0.6V8.3z"/>
<path class="st2" d="M40.1,2.4c0-1,0.8-1.8,1.7-1.8l0,0c1,0,1.7,0.8,1.7,1.8l0,6.2c0,1-0.8,1.8-1.7,1.8l0,0c-1,0-1.7-0.8-1.7-1.8
	L40.1,2.4z"/>
<path class="st3" d="M40.8,3c0-0.3,0.3-0.6,0.6-0.6l0,0C41.7,2.4,42,2.7,42,3l0,5.4C42,8.8,41.7,9,41.4,9l0,0
	c-0.3,0-0.6-0.3-0.6-0.6L40.8,3z"/>
<path class="st2" d="M30,2.3c0-1,0.8-1.8,1.7-1.8l0,0c1,0,1.7,0.8,1.7,1.8l0,6.2c0,1-0.8,1.8-1.7,1.8l0,0c-1,0-1.7-0.8-1.7-1.8
	L30,2.3z"/>
<path class="st3" d="M30.7,2.9c0-0.3,0.3-0.6,0.6-0.6l0,0c0.3,0,0.6,0.3,0.6,0.6l0,5.4c0,0.3-0.3,0.6-0.6,0.6l0,0
	c-0.3,0-0.6-0.3-0.6-0.6L30.7,2.9z"/>
<text transform="matrix(1.0739 0 0 1 8.9788 40.2909)" class="st1 st4 st5">25</text>
<ellipse class="st0" cx="42.1" cy="43.4" rx="9.8" ry="10"/>
<path class="st6" d="M34.9,39.7c0.5,0.1,1,0.2,1.5,0.4c0.3,0.1,0.5,0.2,0.7,0.3c0.2,0.1,0.5,0.2,0.7,0.4c0.5,0.3,0.9,0.6,1.4,0.9
	c0.2,0.2,0.4,0.4,0.6,0.5c0.2,0.2,0.4,0.4,0.6,0.6c0.2,0.2,0.4,0.4,0.5,0.7c0.2,0.2,0.3,0.5,0.5,0.7c0.1,0.2,0.3,0.5,0.4,0.8
	c0.1,0.3,0.2,0.5,0.3,0.8c0.1,0.3,0.2,0.5,0.3,0.8c0.1,0.3,0.1,0.6,0.2,0.8c0.1,0.6,0.2,1.1,0.2,1.7l-1.6-0.8l1-0.7L42,48.1
	c0.1-0.5,0.2-1,0.4-1.4c0.1-0.5,0.3-0.9,0.4-1.4c0.3-0.9,0.7-1.8,1.1-2.7c0.4-0.9,0.8-1.7,1.3-2.6c0.2-0.4,0.5-0.8,0.7-1.2
	c0.3-0.4,0.5-0.8,0.8-1.2c0.6-0.8,1.2-1.5,1.9-2.2c0.7-0.7,1.5-1.3,2.3-1.8c0.4-0.2,0.9-0.5,1.3-0.6c0.5-0.2,0.9-0.3,1.4-0.4
	c0.9-0.2,1.9-0.2,2.8,0c-0.5,0.1-0.9,0.1-1.4,0.2c-0.4,0.1-0.9,0.3-1.3,0.4c-0.4,0.2-0.8,0.4-1.2,0.6c-0.4,0.2-0.7,0.5-1.1,0.8
	c-0.3,0.3-0.7,0.6-1,0.9c-0.3,0.3-0.6,0.6-0.9,1c-0.6,0.7-1.1,1.4-1.5,2.2c-0.9,1.5-1.7,3.1-2.5,4.8c-0.4,0.8-0.7,1.7-1,2.5
	c-0.2,0.4-0.3,0.9-0.5,1.3c-0.1,0.4-0.3,0.9-0.4,1.3L43.8,49l-0.3,0.2l-1,0.7L41,51L41,49.1c0-0.2,0-0.5,0-0.7c0-0.2,0-0.5-0.1-0.7
	c0-0.2-0.1-0.5-0.1-0.7c0-0.2-0.1-0.5-0.2-0.7c-0.1-0.2-0.1-0.5-0.2-0.7c-0.1-0.2-0.2-0.5-0.3-0.7c-0.1-0.2-0.2-0.4-0.3-0.6
	c-0.1-0.2-0.2-0.4-0.4-0.6c-0.1-0.2-0.3-0.4-0.4-0.6c-0.1-0.2-0.3-0.4-0.5-0.6c-0.3-0.4-0.7-0.7-1.1-1.1c-0.2-0.2-0.4-0.3-0.6-0.5
	c-0.2-0.2-0.4-0.3-0.6-0.4C35.8,40.2,35.4,39.9,34.9,39.7z"/>
</svg>
