<?xml version="1.0" encoding="utf-8"?>
<!-- Generator: Adobe Illustrator 19.0.0, SVG Export Plug-In . SVG Version: 6.00 Build 0)  -->
<svg version="1.1" id="Слой_1" xmlns="http://www.w3.org/2000/svg" xmlns:xlink="http://www.w3.org/1999/xlink" x="0px" y="0px"
	 viewBox="0 0 81.8 51.2" style="enable-background:new 0 0 81.8 51.2;" xml:space="preserve">
<style type="text/css">
	.st0{fill:#D44F6D;stroke:#FFFFFF;stroke-miterlimit:10;}
	.st1{fill:#E49E44;}
	.st2{fill:#FFFFFF;}
	.st3{fill:#FFFFFF;stroke:#D44F6D;stroke-miterlimit:10;}
</style>
<g>
	<path class="st0" d="M18.3,14.6L15,35.2c0,0,11.6,5.8,23.1,5.8c11.9,0.1,23.8-6.1,23.8-6.1l-4.2-19.2L18.3,14.6z"/>
	<polygon class="st0" points="1.6,12.5 38.9,23.6 73.3,11.7 34.8,0.5 	"/>
	<path class="st1" d="M39.8,10.8l23.1,5.1l-0.7,7.8l-0.3-0.1l-0.1-7.1l-23.1-5.1C38.6,11.5,37.3,10.5,39.8,10.8z"/>
	<ellipse class="st2" cx="37.3" cy="10.5" rx="2.6" ry="0.8"/>
	<path class="st1" d="M61.8,19.6c0,0-4.8,0.9-4,5.6s4.3,5.5,2,9.7C59.9,34.9,74.1,21.3,61.8,19.6z"/>
	<path class="st3" d="M43.9,29.1"/>
	<path class="st0" d="M47.8,47.4c0,0-3.2,5.6-10.1,2.2s-19.2-9.9-27.2-11.2c-8-1.3-7-4.4-5.8-8.2s2.5-6.4,6.5-4.4s26,7.5,31,8.1
		C47.2,34.6,49.1,45,47.8,47.4z"/>
	<path class="st2" d="M38.3,44.6l5.9,1.9c0,0,5.8-7.2,1-11.7S35.3,45,39.1,48.5c3.8,3.5,9.2,0.8,10-4.7s-1.6-12.6-1.6-12.6
		S33.1,32.4,25.8,30s-15.2-6.9-15.2-6.9l0.1,2.6c0,0,12,5.2,19.3,6.5c7.2,1.3,11.9,1.8,11.9,1.8"/>
	<path class="st1" d="M37.8,44l7.5,2.2c0,0,3.2-9.5-0.3-12.1S37.8,37.9,37.8,44z"/>
</g>
</svg>
