<?xml version="1.0" encoding="utf-8"?>
<!-- Generator: Adobe Illustrator 19.0.0, SVG Export Plug-In . SVG Version: 6.00 Build 0)  -->
<svg version="1.1" id="Слой_1" xmlns="http://www.w3.org/2000/svg" xmlns:xlink="http://www.w3.org/1999/xlink" x="0px" y="0px"
	 viewBox="0 0 93 62.8" style="enable-background:new 0 0 93 62.8;" xml:space="preserve">
<style type="text/css">
	.st0{fill:#FFFFFF;stroke:#E49E44;stroke-linecap:round;stroke-miterlimit:10;}
	.st1{fill:#E49E44;}
	.st2{fill:#D44F6D;}
	.st3{fill:none;stroke:#E49E44;stroke-linecap:round;stroke-miterlimit:10;}
</style>
<path class="st0" d="M18.1,46.5c-2.1,0-3.7-1.8-3.7-3.9V4.4c0-2.2,1.7-3.9,3.7-3.9h70.7c2.1,0,3.7,1.8,3.7,3.9v38.2
	c0,2.2-1.7,3.9-3.7,3.9"/>
<g>
	<g id="XMLID_31_">
		<path id="XMLID_34_" class="st1" d="M38.4,60L38.4,60C38.4,60,38.4,60.1,38.4,60z"/>
		<path id="XMLID_33_" class="st1" d="M59.2,53.2c-4-1.5-3.4-6.2-3.4-6.2c12-0.8,5.1-12,3.3-15.4c-1.8-3.5-6.2-3.2-7.1-3.1
			c-1.5-0.1-4.8,0.2-6.4,3.2C43.9,35,37.1,46.2,48.8,47c0,0,0.6,4.7-3.3,6.2c-3.9,1.5-7.3,3.1-7.2,5.1c0.1,1.3,0.1,1.6,0.1,1.7
			l13.1-0.1l0,0l15,0.1c0-0.1,0-0.4,0.1-1.7C66.7,56.3,63.2,54.7,59.2,53.2z"/>
		<path id="XMLID_32_" class="st1" d="M66.5,60L66.5,60C66.5,60.1,66.5,60,66.5,60z"/>
	</g>
</g>
<g>
	<path class="st2" d="M26,62.6L26,62.6C26,62.6,26,62.7,26,62.6z"/>
	<path class="st2" d="M46.8,55.8c-4-1.5-3.4-6.2-3.4-6.2c12-0.8,5.1-12,3.3-15.4c-1.8-3.5-6.2-3.2-7.1-3.1c-1.5-0.1-4.8,0.2-6.4,3.2
		c-1.7,3.4-8.5,14.6,3.2,15.3c0,0,0.6,4.7-3.3,6.2c-3.9,1.5-7.3,3.1-7.2,5.1c0.1,1.3,0.1,1.6,0.1,1.7l13.1-0.1l0,0l15,0.1
		c0-0.1,0-0.4,0.1-1.7C54.3,58.9,50.8,57.3,46.8,55.8z"/>
	<path class="st2" d="M54.1,62.7L54.1,62.7C54.1,62.7,54.1,62.7,54.1,62.7z"/>
</g>
<g>
	<path class="st2" d="M51.7,62.8L51.7,62.8C51.7,62.8,51.7,62.8,51.7,62.8z"/>
	<path class="st2" d="M72.5,56c-4-1.5-3.4-6.2-3.4-6.2c12-0.8,5.1-12,3.3-15.4c-1.8-3.5-6.2-3.2-7.1-3.1c-1.5-0.1-4.8,0.2-6.4,3.2
		c-1.7,3.4-8.5,14.6,3.2,15.3c0,0,0.6,4.7-3.3,6.2c-3.9,1.5-7.3,3.1-7.2,5.1c0.1,1.3,0.1,1.6,0.1,1.7l13.1-0.1l0,0l15,0.1
		c0-0.1,0-0.4,0.1-1.7C80,59.1,76.5,57.4,72.5,56z"/>
	<path class="st2" d="M79.8,62.8L79.8,62.8C79.8,62.9,79.8,62.8,79.8,62.8z"/>
</g>
<polyline class="st3" points="25.2,36.5 14.9,36.5 14.9,13.5 92.4,13.5 92.4,36.5 80.2,36.5 "/>
<polygon class="st1" points="0,47.4 43.1,20.5 1.6,48.8 "/>
</svg>
