<?xml version="1.0" encoding="utf-8"?>
<!-- Generator: Adobe Illustrator 19.0.0, SVG Export Plug-In . SVG Version: 6.00 Build 0)  -->
<svg version="1.1" id="Слой_1" xmlns="http://www.w3.org/2000/svg" xmlns:xlink="http://www.w3.org/1999/xlink" x="0px" y="0px"
	 viewBox="0 0 70.1 81.1" style="enable-background:new 0 0 70.1 81.1;" xml:space="preserve">
<style type="text/css">
	.st0{fill:#D44F6D;}
	.st1{fill:#E49E44;}
	.st2{fill:#FFFFFF;}
	.st3{font-family:'TimesNewRomanPSMT';}
	.st4{font-size:12.375px;}
</style>
<path class="st0" d="M10,78.6c0,1.3-1.1,2.4-2.4,2.4H2.4c-1.3,0-2.4-1.1-2.4-2.4V53c0-1.3,1.1-2.4,2.4-2.4h5.3
	c1.3,0,2.4,1.1,2.4,2.4V78.6z"/>
<path class="st0" d="M21.7,78.8c0,1.3-1.1,2.4-2.4,2.4h-5.1c-1.3,0-2.4-1.1-2.4-2.4V47.4c0-1.3,1.1-2.4,2.4-2.4h5.1
	c1.3,0,2.4,1.1,2.4,2.4V78.8z"/>
<path class="st0" d="M33.5,78.6c0,1.3-1.1,2.4-2.4,2.4h-5.6c-1.3,0-2.4-1.1-2.4-2.4v-37c0-1.3,1.1-2.4,2.4-2.4h5.6
	c1.3,0,2.4,1.1,2.4,2.4V78.6z"/>
<polygon class="st1" points="41.3,4 45.3,12.9 55.1,14 47.8,20.6 49.8,30.2 41.3,25.3 32.8,30.2 34.8,20.6 27.6,14 37.3,12.9 "/>
<g>
	<text id="XMLID_40_" transform="matrix(1.0739 0 0 1 34.6277 23.5775)" class="st2 st3 st4">15</text>
</g>
<path class="st0" d="M45.4,78.1c0,1.5-1.1,2.8-2.4,2.8h-5.6c-1.3,0-2.4-1.2-2.4-2.8V34.6c0-1.5,1.1-2.8,2.4-2.8H43
	c1.3,0,2.4,1.2,2.4,2.8V78.1z"/>
</svg>
