<?xml version="1.0" encoding="utf-8"?>
<!-- Generator: Adobe Illustrator 19.0.0, SVG Export Plug-In . SVG Version: 6.00 Build 0)  -->
<svg version="1.1" id="Слой_1" xmlns="http://www.w3.org/2000/svg" xmlns:xlink="http://www.w3.org/1999/xlink" x="0px" y="0px"
	 viewBox="0 0 71.3 72.5" style="enable-background:new 0 0 71.3 72.5;" xml:space="preserve">
<style type="text/css">
	.st0{fill:none;stroke:#E49E44;stroke-width:2;stroke-miterlimit:10;}
	.st1{fill:#E49E44;}
	.st2{fill:#D44F6D;}
	.st3{fill:#FFFFFF;}
</style>
<rect x="-13.8" y="5" class="st0" width="34.5" height="50.8"/>
<polygon class="st1" points="23.6,54.5 20,76.5 28.1,68.4 37.2,73.2 31.4,46.9 "/>
<polygon class="st1" points="26.7,55 45.1,76 44.1,61.6 56.3,56.8 26,41.4 "/>
<path class="st2" d="M37.8,36.6c-0.8-1.8-2.6-3-4.4-3.2c-0.6-0.9-1.3-1.7-2-2.4c0-2.1-1.1-4.1-3.2-5.1c-1.9-0.9-4-0.6-5.6,0.5
	c-0.9-0.2-1.9-0.3-2.9-0.3c-1.6-1.9-4.3-2.6-6.7-1.5c-1.8,0.8-3,2.5-3.2,4.3c-1.1,0.7-2,1.5-2.9,2.4c-2.2-0.1-4.3,1.1-5.3,3.2
	c-0.9,2-0.6,4.3,0.8,5.9c-0.1,0.8-0.2,1.6-0.2,2.4c-1.9,1.5-2.6,4.2-1.5,6.5c0.9,1.9,2.7,3,4.6,3.2c0.6,0.9,1.3,1.7,2.1,2.5
	c-0.3,2.3,0.9,4.6,3.1,5.7c2.2,1,4.7,0.5,6.4-1.1c1,0.1,2,0.2,3,0.2c1.6,1.8,4.3,2.4,6.6,1.4c2-0.9,3.2-2.8,3.2-4.8
	c0.7-0.5,1.3-1.1,1.9-1.6c2.2,0.1,4.4-1.1,5.4-3.2c0.9-2,0.6-4.3-0.8-5.9c0.1-0.8,0.2-1.6,0.2-2.4C38.2,41.6,38.9,38.9,37.8,36.6z"
	/>
<path class="st2" d="M39.1,45c0-2-1-3.8-2.7-4.7c-0.2-1-0.4-2.1-0.8-3c0.9-1.9,0.7-4.2-0.7-6c-1.3-1.6-3.4-2.3-5.3-1.9
	c-0.8-0.6-1.6-1.1-2.5-1.5c-0.6-2.4-2.8-4.2-5.4-4.2c-2,0-3.8,1-4.7,2.6c-1.2,0.2-2.4,0.5-3.6,1c-2-1-4.4-0.8-6.2,0.7
	c-1.7,1.4-2.3,3.6-1.8,5.6C5,34.3,4.6,35,4.2,35.7C1.8,36.3,0,38.4,0,41c0,2.1,1.1,3.9,2.8,4.8c0.2,1.1,0.5,2.1,0.9,3.1
	c-1.3,2-1.2,4.6,0.4,6.5c1.6,1.8,4.1,2.4,6.2,1.7c0.8,0.5,1.7,1,2.7,1.4c0.7,2.3,2.8,4,5.4,4c2.2,0,4.1-1.2,5-3
	c0.8-0.2,1.6-0.4,2.4-0.7c2,1,4.4,0.9,6.2-0.6c1.7-1.4,2.3-3.7,1.8-5.7c0.5-0.7,0.9-1.4,1.2-2.1C37.4,49.6,39.1,47.5,39.1,45z"/>
<ellipse class="st3" cx="19.4" cy="43.1" rx="15.5" ry="15.3"/>
<ellipse class="st1" cx="19.6" cy="42.9" rx="13.5" ry="13.3"/>
<ellipse class="st3" cx="19.5" cy="43" rx="11.9" ry="11.7"/>
</svg>
