<?xml version="1.0" encoding="utf-8"?>
<!-- Generator: Adobe Illustrator 19.0.0, SVG Export Plug-In . SVG Version: 6.00 Build 0)  -->
<svg version="1.1" id="Слой_1" xmlns="http://www.w3.org/2000/svg" xmlns:xlink="http://www.w3.org/1999/xlink" x="0px" y="0px"
	 viewBox="0 0 63.6 52.4" style="enable-background:new 0 0 63.6 52.4;" xml:space="preserve">
<style type="text/css">
	.st0{fill:#D44F6D;}
	.st1{fill:#FFFFFF;}
	.st2{fill:#E49E44;}
	.st3{fill:none;stroke:#E49E44;stroke-width:2;stroke-miterlimit:10;}
	.st4{fill:none;stroke:#FFFFFF;stroke-width:2;stroke-miterlimit:10;}
</style>
<rect x="23.7" class="st0" width="39.9" height="52.4"/>
<rect x="26.7" y="3.3" class="st1" width="16.8" height="22.4"/>
<ellipse class="st0" cx="34.4" cy="15.2" rx="4.1" ry="4.2"/>
<path class="st2" d="M32.1,18.2c0,0-1.4-1.6-1.2-3.5s0.6-1.8,0.6-1.8s0.3,0.6,1.2,0.9s0.8,0.3,0.8,0.3s-1.8-1.5-1.3-2.1
	c0.5-0.7,1,1.1,3.1,1.2s3.2,1.3,2.9,2.5c-0.3,1.2-1.5,2.9-1.5,2.9s3.8-2,3.4-5.4s-3.2-4.9-5.6-4.9s-5.8,3.5-5.2,6.5
	S32.1,18.2,32.1,18.2z"/>
<path class="st0" d="M35.9,21.5c0,1.1-0.7,1.9-1.6,1.9l0,0c-0.9,0-1.6-0.9-1.6-1.9v-2.4c0-1.1,0.7-1.9,1.6-1.9l0,0
	c0.9,0,1.6,0.9,1.6,1.9V21.5z"/>
<path class="st0" d="M40.4,24.3c0-2-2.7-3.5-6-3.5s-6,1.6-6,3.5H40.4z"/>
<path class="st2" d="M37.2,21.1c1.9,0.6,3.2,1.8,3.2,3.1H28.3c0-1.4,1.5-2.7,3.6-3.2l2.5,2.4L37.2,21.1z"/>
<ellipse class="st2" cx="34.6" cy="7.5" rx="4.4" ry="3.1"/>
<ellipse class="st3" cx="33.8" cy="14.7" rx="13.1" ry="12.7"/>
<path class="st4" d="M45.9,14.6c-0.1,6.6-5.6,11.8-12.3,11.8c-6.7-0.1-12.1-5.5-12.1-12c0.1-6.6,5.6-11.8,12.3-11.8
	C40.5,2.7,45.9,8.1,45.9,14.6z"/>
<path class="st2" d="M1,43.2c-2.3-2.8,0-6.2,0-6.2l21.4-14.1c0,0,0.2,1,0.8,2c0.6,1.1,2.4,1.2,2.4,1.2L7.4,44.3
	C7.4,44.3,3.6,45.9,1,43.2"/>
<path class="st1" d="M21,28c0,0-15.1,15.4-17,13.4s-1.6-3.3-1.6-3.3s-1.2,4.3,2,4.4S21,28,21,28z"/>
<path class="st1" d="M62,4.3c0,0.3-0.3,0.6-0.6,0.6H46.7c-0.3,0-0.6-0.3-0.6-0.6l0,0c0-0.3,0.3-0.6,0.6-0.6h14.7
	C61.8,3.8,62,4,62,4.3L62,4.3z"/>
<path class="st1" d="M61.8,6.9c0,0.3-0.2,0.5-0.5,0.5H47.1c-0.3,0-0.5-0.2-0.5-0.5l0,0c0-0.3,0.2-0.5,0.5-0.5h14.2
	C61.6,6.4,61.8,6.6,61.8,6.9L61.8,6.9z"/>
<path class="st1" d="M62.3,9.5c0,0.3-0.3,0.6-0.6,0.6H46.9c-0.3,0-0.6-0.3-0.6-0.6l0,0c0-0.3,0.3-0.6,0.6-0.6h14.7
	C62,8.9,62.3,9.2,62.3,9.5L62.3,9.5z"/>
<path class="st1" d="M62.1,12c0,0.3-0.2,0.5-0.5,0.5H47.3c-0.3,0-0.5-0.2-0.5-0.5l0,0c0-0.3,0.2-0.5,0.5-0.5h14.2
	C61.8,11.5,62.1,11.7,62.1,12L62.1,12z"/>
<path class="st1" d="M61.8,24.3c0,0.3-0.2,0.5-0.5,0.5H46.2c-0.3,0-0.5-0.2-0.5-0.5l0,0c0-0.3,0.2-0.5,0.5-0.5h15.1
	C61.6,23.8,61.8,24,61.8,24.3L61.8,24.3z"/>
<path class="st1" d="M48.7,29c0,0.4-0.3,0.7-0.7,0.7h-7.8c-0.4,0-0.7-0.3-0.7-0.7l0,0c0-0.4,0.3-0.7,0.7-0.7H48
	C48.4,28.3,48.7,28.6,48.7,29L48.7,29z"/>
<path class="st1" d="M61.1,13.7c0,0.2-0.2,0.4-0.4,0.4h-7.3c-0.2,0-0.4-0.2-0.4-0.4l0,0c0-0.2,0.2-0.4,0.4-0.4h7.3
	C60.9,13.3,61.1,13.5,61.1,13.7L61.1,13.7z"/>
<path class="st1" d="M61.2,15.4c0,0.2-0.2,0.4-0.4,0.4h-4.4c-0.2,0-0.4-0.2-0.4-0.4l0,0c0-0.2,0.2-0.4,0.4-0.4h4.4
	C61,15,61.2,15.2,61.2,15.4L61.2,15.4z"/>
<path class="st1" d="M60.7,32.4c0,0.3-0.6,0.6-1.3,0.6H26.7c-0.7,0-1.3-0.3-1.3-0.6l0,0c0-0.3,0.6-0.6,1.3-0.6h32.7
	C60.1,31.8,60.7,32.1,60.7,32.4L60.7,32.4z"/>
<path class="st1" d="M59.4,34.7c0,0.3-0.5,0.5-1.2,0.5H26.7c-0.7,0-1.2-0.2-1.2-0.5l0,0c0-0.3,0.5-0.5,1.2-0.5h31.5
	C58.9,34.2,59.4,34.4,59.4,34.7L59.4,34.7z"/>
<path class="st1" d="M60.6,37.4c0,0.3-0.6,0.6-1.3,0.6H26.6c-0.7,0-1.3-0.3-1.3-0.6l0,0c0-0.3,0.6-0.6,1.3-0.6h32.7
	C60,36.8,60.6,37.1,60.6,37.4L60.6,37.4z"/>
<path class="st1" d="M59.3,39.7c0,0.3-0.5,0.5-1.2,0.5H26.6c-0.7,0-1.2-0.2-1.2-0.5l0,0c0-0.3,0.5-0.5,1.2-0.5h31.5
	C58.7,39.2,59.3,39.5,59.3,39.7L59.3,39.7z"/>
<path class="st1" d="M61.2,42.5c0,0.3-0.6,0.6-1.3,0.6H27.2c-0.7,0-1.3-0.3-1.3-0.6l0,0c0-0.3,0.6-0.6,1.3-0.6h32.7
	C60.6,41.9,61.2,42.2,61.2,42.5L61.2,42.5z"/>
<path class="st1" d="M59.9,44.8c0,0.3-0.5,0.5-1.2,0.5H27.2c-0.7,0-1.2-0.2-1.2-0.5l0,0c0-0.3,0.5-0.5,1.2-0.5h31.5
	C59.3,44.3,59.9,44.6,59.9,44.8L59.9,44.8z"/>
<path class="st1" d="M61.1,49c0,0.3-0.3,0.6-0.6,0.6h-7.1c-0.3,0-0.6-0.2-0.6-0.6l0,0c0-0.3,0.3-0.6,0.6-0.6h7.1
	C60.8,48.4,61.1,48.7,61.1,49L61.1,49z"/>
</svg>
